<svg xmlns="http://www.w3.org/2000/svg" viewBox="0 0 240 220">
  <defs>
    <linearGradient id="bBody" x1="0" y1="0" x2="0" y2="1">
      <stop offset="0%" stop-color="#232c38"/>
      <stop offset="100%" stop-color="#090f15"/>
    </linearGradient>
  </defs>
  <path d="M120 10 L146 40 L144 168 L120 210 L96 168 L94 40 Z" fill="url(#bBody)" stroke="#7e8993" stroke-width="6"/>
  <path d="M64 36 L14 86 L78 84 L102 60 Z" fill="#e5cb72" stroke="#5f6871" stroke-width="6"/>
  <path d="M176 36 L226 86 L162 84 L138 60 Z" fill="#e5cb72" stroke="#5f6871" stroke-width="6"/>
  <path d="M40 48 L88 72 L74 158 L34 198 L26 120 Z" fill="#111923" stroke="#5d6670" stroke-width="6"/>
  <path d="M200 48 L152 72 L166 158 L206 198 L214 120 Z" fill="#111923" stroke="#5d6670" stroke-width="6"/>
  <rect x="102" y="18" width="36" height="34" rx="14" fill="#323d47" stroke="#7d8791" stroke-width="6"/>
  <rect x="88" y="104" width="64" height="24" rx="10" fill="#e0e7ef" stroke="#66717a" stroke-width="5"/>
  <circle cx="120" cy="68" r="11" fill="#6d7880"/>
  <rect x="88" y="176" width="18" height="24" rx="6" fill="#ffc17f"/>
  <rect x="134" y="176" width="18" height="24" rx="6" fill="#ffc17f"/>
</svg>
