<svg xmlns="http://www.w3.org/2000/svg" viewBox="0 0 220 196">
  <defs>
    <linearGradient id="core" x1="0" y1="0" x2="0" y2="1">
      <stop offset="0%" stop-color="#e8fff2"/>
      <stop offset="100%" stop-color="#9fdab1"/>
    </linearGradient>
    <linearGradient id="wing" x1="0" y1="0" x2="1" y2="1">
      <stop offset="0%" stop-color="#4fd07b"/>
      <stop offset="100%" stop-color="#21643a"/>
    </linearGradient>
    <linearGradient id="armor" x1="0" y1="0" x2="0" y2="1">
      <stop offset="0%" stop-color="#3f8253"/>
      <stop offset="100%" stop-color="#173a22"/>
    </linearGradient>
  </defs>
  <g fill="none" fill-rule="evenodd">
    <path d="M110 4 154 54 168 76 210 112 194 128 170 126 182 190 150 174 132 138 110 192 88 138 70 174 38 190 50 126 26 128 10 112 52 76 66 54z" fill="#264b30"/>
    <path d="M110 16 146 60 160 80 190 108 170 110 156 90 132 78 120 104 100 104 88 78 64 90 50 110 30 108 60 80 74 60z" fill="url(#wing)"/>
    <path d="M110 32 126 62 134 96 134 154 110 188 86 154 86 96 94 62z" fill="url(#core)"/>
    <path d="M80 58h60l14 16-10 28-24 20h-20L76 102 66 74z" fill="#d6ffdf"/>
    <path d="M88 42h44c16 0 28 12 28 28v24c0 18-14 32-32 32h-36c-18 0-32-14-32-32V70c0-16 12-28 28-28Z" fill="#73b67c"/>
    <rect x="74" y="54" width="72" height="56" rx="20" fill="#1f4129"/>
    <path d="m48 110 24-16 18 18-12 62-40 22z" fill="#27853c"/>
    <path d="m172 110-24-16-18 18 12 62 40 22z" fill="#27853c"/>
    <path d="M104 116h12l8 44-14 24-14-24z" fill="#d8ffdb"/>
    <path d="M84 18h52l10 14H74z" fill="#b9f1c5"/>
    <path d="M96 10h28l8 12H88z" fill="#eaffef"/>
    <path d="M66 86 18 118h28l36-26z" fill="#4ed074"/>
    <path d="m154 92 36 26h28l-48-32z" fill="#4ed074"/>
    <path d="M24 118h172" stroke="#173a22" stroke-width="6" stroke-linecap="round"/>
    <path d="M58 128h104" stroke="#173a22" stroke-width="5" stroke-linecap="round"/>
    <path d="M80 138h60" stroke="#173a22" stroke-width="4" stroke-linecap="round"/>
    <circle cx="90" cy="86" r="7" fill="#7ffab2"/>
    <circle cx="130" cy="86" r="7" fill="#7ffab2"/>
    <path d="M58 70h20l6 10H52z" fill="url(#armor)"/>
    <path d="M142 70h20l6 10h-32z" fill="url(#armor)"/>
  </g>
</svg>
